<svg width="161" height="161" viewBox="0 0 161 161" fill="none" xmlns="http://www.w3.org/2000/svg">
<g clip-path="url(#clip0_401_2)">
<path d="M150.238 80.5022C152.552 79.4139 154.598 77.8283 156.229 75.8585C157.86 73.8887 159.036 71.5833 159.674 69.1067C160.516 66.0297 160.526 62.7842 159.704 59.7018C158.881 56.6194 157.255 53.8106 154.992 51.5622L139.654 36.2512C138.364 34.96 136.615 34.2337 134.79 34.2319H133.669C132.764 34.2337 131.868 34.057 131.032 33.7118C130.196 33.3666 129.436 32.8597 128.796 32.2203C128.157 31.5808 127.649 30.8214 127.303 29.9855C126.958 29.1496 126.78 28.2537 126.782 27.3491V26.5423C126.78 25.5302 126.578 24.5284 126.187 23.595C125.796 22.6616 125.223 21.815 124.502 21.1043L109.424 5.98937C107.174 3.73286 104.367 2.11105 101.289 1.28818C98.2103 0.465308 94.969 0.470609 91.8931 1.30354C89.4183 1.94073 87.1143 3.11528 85.1447 4.74368C83.1752 6.37208 81.5886 8.41436 80.4977 10.7253C79.4104 8.40987 77.8252 6.3631 75.8554 4.73125C73.8855 3.09939 71.5795 1.92272 69.1022 1.28531C66.0254 0.443983 62.7805 0.43446 59.6989 1.25772C56.6173 2.08097 53.8095 3.7075 51.5622 5.97113L36.4746 21.0724C35.7581 21.785 35.1899 22.6324 34.8026 23.5657C34.4154 24.4991 34.2168 25.4999 34.2183 26.5104V27.3126C34.2183 28.2162 34.04 29.1109 33.6937 29.9455C33.3473 30.7801 32.8397 31.5382 32.1999 32.1763C31.5601 32.8144 30.8007 33.32 29.9652 33.6642C29.1297 34.0083 28.2345 34.1842 27.3309 34.1818H26.2095C25.3058 34.1814 24.4109 34.3596 23.5763 34.7062C22.7416 35.0527 21.9837 35.5607 21.346 36.2011L5.98483 51.5713C3.72161 53.8197 2.09574 56.6286 1.27329 59.7109C0.45084 62.7933 0.46129 66.0388 1.30357 69.1158C1.93902 71.5933 3.11444 73.8997 4.74565 75.8698C6.37687 77.8398 8.42351 79.4249 10.739 80.5113C8.4246 81.5993 6.37888 83.1848 4.74787 85.1546C3.11686 87.1245 1.94078 89.43 1.30357 91.9068C0.467964 94.9843 0.460855 98.228 1.28296 101.309C2.10507 104.39 3.72717 107.199 5.98483 109.451L21.0998 124.553C21.8132 125.269 22.6614 125.837 23.5955 126.225C24.5296 126.612 25.5311 126.811 26.5423 126.809H27.3263C28.2309 126.807 29.1269 126.984 29.9631 127.329C30.7992 127.674 31.559 128.181 32.1989 128.821C32.8387 129.46 33.3461 130.219 33.6918 131.055C34.0376 131.891 34.2149 132.787 34.2137 133.692V134.818C34.2165 136.642 34.9427 138.391 36.233 139.681L51.5713 155.033C53.8201 157.291 56.6274 158.913 59.7071 159.732C62.7868 160.551 66.0287 160.539 69.1022 159.696C71.5784 159.058 73.8834 157.881 75.8531 156.25C77.8227 154.62 79.4086 152.574 80.4977 150.261C81.5867 152.574 83.1726 154.62 85.1422 156.25C87.1119 157.881 89.4169 159.058 91.8931 159.696C94.9703 160.531 98.2135 160.537 101.294 159.714C104.374 158.891 107.182 157.268 109.433 155.01L124.79 139.645C125.43 139.006 125.938 138.247 126.285 137.412C126.631 136.577 126.809 135.681 126.809 134.777V133.655C126.807 132.752 126.982 131.857 127.327 131.022C127.671 130.186 128.177 129.427 128.815 128.788C129.453 128.148 130.211 127.641 131.046 127.295C131.88 126.95 132.775 126.772 133.678 126.772H134.476C135.487 126.774 136.488 126.576 137.423 126.188C138.357 125.801 139.205 125.233 139.918 124.516L155.02 109.428C157.277 107.176 158.899 104.367 159.721 101.286C160.544 98.2051 160.536 94.9615 159.701 91.884C159.059 89.4071 157.878 87.1026 156.242 85.1351C154.606 83.1675 152.556 81.5856 150.238 80.5022ZM82.1796 14.2762C82.855 11.795 84.1767 9.53749 86.0097 7.73408C87.8427 5.93067 90.1215 4.64596 92.6133 4.01111C95.2145 3.30252 97.9571 3.29756 100.561 3.99674C103.165 4.69591 105.536 6.07413 107.432 7.99041L121.608 22.1527C122.348 22.8605 122.938 23.709 123.345 24.6483C123.753 25.5876 123.968 26.5989 123.978 27.6226C123.962 28.8638 124.194 30.0958 124.662 31.2456C125.13 32.3954 125.823 33.4398 126.702 34.3169C127.58 35.1941 128.626 35.8861 129.776 36.3523C130.927 36.8184 132.159 37.0491 133.4 37.0307C134.424 37.0453 135.435 37.2637 136.375 37.673C137.314 38.0822 138.162 38.6743 138.87 39.4146L153.019 53.5724C154.932 55.4716 156.307 57.8441 157.004 60.4481C157.702 63.0521 157.696 65.7944 156.989 68.3956C156.354 70.8868 155.069 73.1648 153.265 74.9971C151.462 76.8294 149.204 78.1502 146.724 78.8248C146.359 78.925 145.953 79.0253 145.575 79.1074C144.725 79.1208 143.886 78.9085 143.145 78.4921C142.403 78.0757 141.785 77.4701 141.354 76.7371C140.555 75.3654 139.514 74.15 138.282 73.1498C133.555 69.207 126.431 67.288 118.636 67.7483C118.932 67.5387 119.197 67.329 119.479 67.1193C125.674 62.1418 128.327 54.1923 126.194 46.8718L126.139 46.6348C126.03 46.2776 125.785 45.9779 125.456 45.8011C125.127 45.6243 124.742 45.5848 124.384 45.6912C124.207 45.7429 124.043 45.8291 123.9 45.9449C123.757 46.0607 123.638 46.2037 123.551 46.3657C123.463 46.5276 123.409 46.7053 123.391 46.8885C123.373 47.0716 123.391 47.2565 123.445 47.4325L123.504 47.6558C125.327 53.8823 123.048 60.6558 117.711 64.9177C116.333 66.0316 114.844 67 113.267 67.8076C111.825 68.4714 110.334 69.0245 108.809 69.4622C102.22 71.2603 95.873 73.8483 89.9058 77.1701C89.7339 77.2656 89.5444 77.3252 89.3488 77.3451C89.1532 77.3651 88.9555 77.345 88.7679 77.2862C88.5803 77.2273 88.4066 77.1309 88.2574 77.0028C88.1083 76.8748 87.9867 76.7177 87.9002 76.5411C87.7585 76.2667 87.7082 75.9542 87.7566 75.6492C87.8049 75.3442 87.9495 75.0626 88.1691 74.8455L88.9804 74.0295C91.65 71.3624 94.8903 69.3363 98.4569 68.1039C102.408 66.7566 106.162 64.8896 109.62 62.552C114.584 59.1014 117.797 54.2789 118.217 49.6797C118.244 49.3697 118.258 49.078 118.258 48.768C118.278 47.6389 118.023 46.5217 117.515 45.5135C118.426 44.7021 120.614 43.0201 123.194 43.1478C125.255 43.2298 127.219 44.4788 129.042 46.849C130.866 49.2193 130.961 51.9223 131.13 55.1358C131.381 59.8581 131.677 65.2003 137.512 69.9545C139.964 71.9601 144.449 73.5464 148.488 72.2838C149.833 71.8701 151.057 71.133 152.052 70.1368C153.274 68.8834 154.148 67.3326 154.587 65.6379C155.667 61.923 154.422 57.9254 151.337 55.2042C148.716 52.875 145.488 52.1183 142.908 53.2259C139.909 54.5022 138.227 57.0411 138.391 60.0131C138.56 62.7754 140.315 65.2732 142.557 65.9387C144.955 66.6544 146.455 65.9706 147.298 65.2824C147.809 64.8556 148.216 64.3182 148.488 63.7109C148.761 63.1036 148.891 62.4424 148.871 61.7771C148.834 61.4188 148.657 61.0896 148.379 60.8609C148.1 60.6321 147.743 60.5224 147.385 60.5555C147.018 60.5857 146.678 60.7552 146.432 61.0291C146.187 61.303 146.057 61.6604 146.067 62.0278C146.051 62.241 145.99 62.4485 145.889 62.6369C145.788 62.8252 145.648 62.9904 145.479 63.1218C144.905 63.5776 144.007 63.4317 143.36 63.2357C142.266 62.9121 141.299 61.4125 141.204 59.8399C141.144 58.8052 141.427 56.8953 144.007 55.7876C145.561 55.1313 147.708 55.7193 149.477 57.3055C151.245 58.8918 152.813 61.6768 151.888 64.863C151.172 67.3427 149.741 68.9426 147.64 69.599C144.736 70.5106 141.231 69.3756 139.266 67.7757C134.403 63.8101 134.166 59.5208 133.924 54.9763C133.742 51.6123 133.546 48.139 131.262 45.1488C128.906 42.0766 126.225 40.4493 123.281 40.3354C122.265 40.3011 121.251 40.4398 120.282 40.7456C120.589 39.7708 120.722 38.7492 120.674 37.7281C120.564 34.7972 118.937 32.1078 115.865 29.7649C112.861 27.4539 109.397 27.2716 106.024 27.0892C101.465 26.8385 97.1898 26.6015 93.2196 21.7334C91.6379 19.7733 90.4847 16.2635 91.3963 13.3645C92.0572 11.2586 93.6754 9.83192 96.1368 9.11629C99.3276 8.20465 102.14 9.75899 103.708 11.5276C105.276 13.2962 105.869 15.4659 105.208 16.9974C104.1 19.5773 102.195 19.8554 101.155 19.8007C99.6011 19.7141 98.0877 18.7478 97.7641 17.6401C97.5681 16.9974 97.4268 16.0994 97.8735 15.5251C98.0031 15.3578 98.1661 15.2191 98.352 15.1179C98.538 15.0167 98.7429 14.9551 98.9538 14.9371C99.1396 14.9594 99.3279 14.9443 99.5078 14.8927C99.6877 14.8411 99.8554 14.7541 100.001 14.6367C100.147 14.5194 100.268 14.3741 100.357 14.2094C100.445 14.0447 100.5 13.8639 100.518 13.6777C100.536 13.4914 100.517 13.3034 100.461 13.1248C100.405 12.9462 100.314 12.7805 100.194 12.6375C100.073 12.4946 99.9248 12.3771 99.7581 12.2922C99.5914 12.2073 99.4093 12.1565 99.2227 12.1429C98.5608 12.1226 97.9029 12.2522 97.2983 12.5222C96.6936 12.7922 96.1579 13.1955 95.7311 13.7018C95.0429 14.5405 94.3637 16.0447 95.0702 18.4424C95.7311 20.685 98.2245 22.4353 100.996 22.604C103.986 22.7726 106.52 21.0907 107.797 18.105C108.891 15.5251 108.134 12.2842 105.805 9.66327C103.676 7.25198 99.8198 5.13242 95.3756 6.40872C91.0681 7.64399 89.3861 10.4199 88.7298 12.5076C87.4671 16.5461 89.0488 21.036 91.0544 23.4883C95.8086 29.3228 101.165 29.6145 105.891 29.8697C109.082 30.0521 111.849 30.1888 114.164 31.9574C116.48 33.726 117.784 35.7453 117.879 37.8192C117.993 40.3718 116.325 42.5598 115.509 43.4714C114.216 42.8487 112.772 42.6098 111.348 42.7831C106.748 43.1888 101.921 46.4297 98.4752 51.3753C96.1346 54.8325 94.266 58.5867 92.9187 62.5383C91.69 66.1081 89.6634 69.3506 86.9931 72.0194L86.1817 72.8307C85.9641 73.0496 85.6822 73.1933 85.3772 73.2408C85.0722 73.2884 84.76 73.2373 84.4861 73.0951C84.3102 73.0084 84.1536 72.8871 84.0259 72.7384C83.8981 72.5897 83.8017 72.4166 83.7425 72.2297C83.6833 72.0428 83.6626 71.8458 83.6815 71.6507C83.7004 71.4555 83.7585 71.2662 83.8525 71.0941C87.1852 65.1203 89.7796 58.7636 91.5786 52.1639C92.0103 50.6424 92.5589 49.1566 93.2196 47.7196C94.03 46.1471 94.9983 44.6611 96.1095 43.2845C100.371 37.9423 107.145 35.686 113.367 37.4956L113.595 37.5503C113.77 37.6067 113.955 37.627 114.139 37.61C114.323 37.593 114.501 37.539 114.663 37.4513C114.826 37.3636 114.968 37.2439 115.083 37.0996C115.198 36.9552 115.282 36.7891 115.331 36.6113C115.385 36.4347 115.403 36.2494 115.384 36.0658C115.366 35.8823 115.312 35.7041 115.225 35.5416C115.137 35.379 115.019 35.2352 114.876 35.1184C114.733 35.0017 114.569 34.9142 114.392 34.861L114.155 34.8017C106.835 32.673 98.8854 35.3213 93.9079 41.5205C93.6982 41.7985 93.4839 42.0675 93.2743 42.3592C93.7301 34.5647 91.8157 27.4402 87.8774 22.7179C86.8768 21.484 85.6596 20.4429 84.2855 19.6457C83.9317 19.4477 83.6066 19.2024 83.3192 18.9164C82.4115 17.982 81.9087 16.7275 81.9198 15.4248C81.9836 15.0465 82.0839 14.6408 82.1796 14.2762ZM112.606 80.6526C112.423 81.4251 111.964 82.1042 111.316 82.5625C109.492 84.1031 105.764 85.4205 100.786 84.5225C96.9465 83.7559 93.2486 82.3998 89.8237 80.5022C93.2482 78.6028 96.9462 77.2451 100.786 76.4773C101.827 76.2874 102.882 76.1883 103.94 76.181C107.336 76.181 109.889 77.2476 111.316 78.4601C111.955 78.9274 112.411 79.6028 112.606 80.37C112.606 80.4247 112.565 80.4657 112.578 80.525C112.592 80.5842 112.606 80.5979 112.606 80.6526ZM113.112 84.7231C113.112 84.7231 113.139 84.7231 113.139 84.6911C115.119 82.9468 117.652 81.9587 120.291 81.9015H139.362C138.756 83.4007 137.764 84.7125 136.486 85.7031C132.575 88.985 124.694 91.8019 114.278 89.924C111.215 89.3573 108.196 88.5743 105.244 87.581C108.357 87.3577 111.12 86.3914 113.112 84.7231ZM120.291 79.0983C117.656 79.0434 115.126 78.0548 113.153 76.3086C113.153 76.3086 113.112 76.3086 113.112 76.2813C111.12 74.613 108.33 73.6421 105.203 73.4461C108.167 72.4373 111.2 71.6451 114.278 71.0758C116.434 70.6822 118.619 70.4763 120.81 70.4605C127.989 70.4605 133.446 72.7396 136.486 75.2967C137.764 76.2873 138.756 77.5991 139.362 79.0983H120.291ZM104.825 56.1705C104.4 55.7915 103.898 55.5109 103.353 55.3486C102.807 55.1863 102.233 55.1463 101.67 55.2315C100.687 55.3298 99.7333 55.6259 98.8672 56.1022C99.4493 55.0329 100.085 53.9939 100.773 52.9889C104.291 47.9293 108.667 45.8508 111.585 45.6001C112.952 45.4724 114.123 45.7414 114.684 46.3157C115.245 46.89 115.523 48.0387 115.4 49.4153C115.144 52.3325 113.071 56.7084 108.006 60.2228C107.003 60.9114 105.965 61.5489 104.898 62.1326C105.379 61.2688 105.674 60.3139 105.764 59.3294C105.786 59.1663 105.795 59.0016 105.791 58.8371C105.814 58.3508 105.74 57.8649 105.574 57.4073C105.408 56.9497 105.154 56.5294 104.825 56.1705ZM101.921 58.0257C102.514 57.9665 102.792 58.1078 102.833 58.1625C102.874 58.2172 103.029 58.4861 102.974 59.0741C102.865 60.323 101.953 62.2147 99.7059 63.7736C98.1825 64.8021 96.5284 65.6222 94.7876 66.2122C95.3746 64.4688 96.1949 62.8128 97.2262 61.2894C98.7806 59.0422 100.677 58.1306 101.921 58.0257ZM85.5117 80.5022C85.5117 81.4939 85.2176 82.4633 84.6667 83.2878C84.1157 84.1124 83.3326 84.755 82.4164 85.1345C81.5002 85.514 80.4921 85.6133 79.5195 85.4199C78.5468 85.2264 77.6534 84.7488 76.9522 84.0476C76.251 83.3464 75.7734 82.453 75.58 81.4804C75.3865 80.5077 75.4858 79.4996 75.8653 78.5834C76.2448 77.6672 76.8875 76.8841 77.712 76.3332C78.5366 75.7822 79.506 75.4882 80.4977 75.4882C81.8274 75.4882 83.1028 76.0164 84.0431 76.9567C84.9834 77.897 85.5117 79.1724 85.5117 80.5022ZM81.897 21.6376C83.3947 22.2417 84.705 23.2327 85.694 24.5093C88.9759 28.4248 91.7929 36.3059 89.9149 46.7214C89.3559 49.8007 88.5635 52.8331 87.5446 55.7922C87.3486 52.6653 86.3823 49.8665 84.714 47.8837C84.714 47.8837 84.714 47.8564 84.6866 47.8427C82.9377 45.8706 81.9487 43.3399 81.897 40.7046V21.6376ZM80.4977 48.417C80.5523 48.417 80.5979 48.3897 80.6526 48.3897C81.4182 48.5856 82.0918 49.0416 82.558 49.6797C84.1032 51.5029 85.4205 55.2315 84.5225 60.2091C83.7612 64.0523 82.4031 67.7528 80.4977 71.1761C78.6003 67.749 77.2427 64.0499 76.4728 60.2091C75.5611 55.2315 76.8921 51.5166 78.4373 49.6797C78.8968 49.0347 79.5732 48.5768 80.3427 48.3897C80.3974 48.3897 80.4429 48.4307 80.4977 48.417ZM73.4461 55.7922C72.4373 52.83 71.6451 49.7984 71.0759 46.7214C69.1979 36.3059 72.0148 28.4248 75.2967 24.5093C76.2857 23.2327 77.5961 22.2417 79.0937 21.6376V40.7046C79.0421 43.3399 78.053 45.8706 76.3041 47.8427C76.3041 47.8427 76.2768 47.8701 76.2768 47.8837C74.6085 49.8757 73.6604 52.6607 73.4461 55.7922ZM3.5462 65.4237C3.38547 63.2455 3.69825 61.0584 4.46306 59.0126C5.22787 56.9668 6.42657 55.1109 7.97677 53.5724L22.1528 39.3964C22.86 38.655 23.7081 38.0623 24.6473 37.653C25.5866 37.2436 26.5981 37.0258 27.6226 37.0124C28.8635 37.0303 30.0954 36.7987 31.2451 36.3312C32.3948 35.8637 33.4388 35.1699 34.3151 34.291C35.1914 33.4122 35.8821 32.3662 36.3463 31.2151C36.8104 30.0641 37.0385 28.8315 37.017 27.5906C37.0299 26.5661 37.2474 25.5544 37.6568 24.6151C38.0662 23.6758 38.6592 22.8277 39.401 22.1208L53.5633 7.99041C55.4605 6.07572 57.8322 4.69921 60.4358 4.00166C63.0394 3.3041 65.7816 3.3105 68.382 4.02023C70.8738 4.65508 73.1526 5.93979 74.9856 7.7432C76.8186 9.5466 78.1403 11.8041 78.8157 14.2853C78.9114 14.6499 79.0117 15.0556 79.0937 15.4339C79.1071 16.2837 78.8953 17.1219 78.4798 17.8633C78.0643 18.6046 77.4599 19.2228 76.728 19.6548C75.3539 20.452 74.1367 21.4931 73.1362 22.7271C69.1979 27.4493 67.2743 34.5784 67.7393 42.3683C67.5113 42.0903 67.3153 41.8077 67.1057 41.5296C62.1281 35.3305 54.1786 32.6822 46.8582 34.8108L46.6211 34.8701C46.4445 34.9233 46.2801 35.0108 46.1373 35.1276C45.9945 35.2443 45.8761 35.3881 45.7889 35.5507C45.7017 35.7132 45.6474 35.8914 45.6291 36.0749C45.6108 36.2585 45.6288 36.4438 45.6822 36.6204C45.7311 36.7983 45.8155 36.9643 45.9303 37.1087C46.0451 37.253 46.188 37.3727 46.3502 37.4604C46.5124 37.5481 46.6907 37.6021 46.8744 37.6191C47.058 37.6361 47.2432 37.6158 47.4188 37.5594L47.6467 37.5047C53.8687 35.6814 60.6421 37.9605 64.9041 43.2936C66.0185 44.6727 66.987 46.1636 67.794 47.7424C68.4443 49.1789 68.9926 50.6595 69.4349 52.173C71.2412 58.7738 73.8433 65.1305 77.1838 71.1032C77.2778 71.2753 77.336 71.4646 77.3549 71.6598C77.3738 71.8549 77.353 72.0519 77.2938 72.2388C77.2346 72.4258 77.1382 72.5988 77.0105 72.7475C76.8827 72.8962 76.7261 73.0176 76.5502 73.1042C76.2763 73.2464 75.9641 73.2975 75.6591 73.2499C75.3541 73.2024 75.0723 73.0587 74.8546 72.8399L74.0569 72.0285C71.3829 69.3627 69.3557 66.1192 68.1313 62.5474C66.787 58.5946 64.9181 54.84 62.5748 51.3844C59.1288 46.4251 54.3154 43.2116 49.7025 42.7922C48.278 42.619 46.8337 42.8578 45.5409 43.4805C44.7249 42.5689 43.0566 40.3809 43.1843 37.8147C43.2663 35.7544 44.5289 33.7898 46.8855 31.9665C49.2421 30.1432 51.9634 30.0475 55.1723 29.8789C59.4479 29.6373 64.2568 29.3866 68.66 24.9834C69.1336 24.5143 69.5795 24.0181 69.9956 23.4974C72.0012 21.0451 73.5829 16.5553 72.3202 12.5167C71.6639 10.4154 69.9819 7.65311 65.6744 6.41784C61.9595 5.33754 57.9619 6.58649 55.2453 9.67239C52.916 12.2933 52.1594 15.5206 53.267 18.1005C54.5433 21.0998 57.0776 22.7818 60.0541 22.6131C62.8164 22.4444 65.3097 20.6941 65.9798 18.4515C66.6954 16.0539 66.0071 14.5497 65.3189 13.7109C64.8955 13.1997 64.3607 12.7922 63.7555 12.5196C63.1503 12.247 62.4907 12.1166 61.8273 12.1384C61.4698 12.1764 61.1417 12.3536 60.9139 12.6317C60.6862 12.9098 60.5771 13.2664 60.6102 13.6243C60.6425 13.9902 60.8125 14.3302 61.0858 14.5756C61.3591 14.8209 61.7153 14.9534 62.0825 14.9462C62.2966 14.9592 62.5052 15.0185 62.6941 15.12C62.883 15.2216 63.0476 15.3629 63.1765 15.5342C63.6323 16.1086 63.4819 17.0065 63.2996 17.6492C62.9623 18.7569 61.4353 19.7232 59.8946 19.8098C58.8553 19.8645 56.95 19.5865 55.8424 17.0065C55.1814 15.4476 55.7694 13.3053 57.3557 11.5367C58.9419 9.76811 61.7316 8.20009 64.9132 9.1254C67.3928 9.84104 69.0156 11.2678 69.6537 13.3736C70.5653 16.2772 69.4304 19.7825 67.8304 21.7425C63.8739 26.6106 59.571 26.8477 55.0265 27.0847C51.6625 27.267 48.1892 27.463 45.199 29.7512C42.1268 32.1078 40.5132 34.7653 40.3901 37.7281C40.354 38.7451 40.4912 39.7609 40.7958 40.7319C39.8222 40.4251 38.8026 40.2909 37.7828 40.3354C34.8519 40.4493 32.158 42.0766 29.8151 45.1488C27.536 48.1344 27.3354 51.6123 27.1531 54.9763C26.8978 59.5345 26.6471 63.8101 21.7972 67.7757C19.8326 69.3619 16.3274 70.5106 13.4238 69.599C11.3225 68.9426 9.89121 67.3427 9.17557 64.863C8.26393 61.6723 9.83651 58.8599 11.5869 57.2873C13.3372 55.7147 15.5297 55.1313 17.0567 55.7876C19.6366 56.8953 19.9192 58.8052 19.86 59.8399C19.7779 61.3988 18.8116 62.9121 17.704 63.2357C17.0567 63.4317 16.1587 63.573 15.5844 63.1218C15.4184 62.9908 15.2808 62.8276 15.1797 62.6419C15.0786 62.4562 15.0163 62.252 14.9964 62.0415C15.0314 61.6716 14.9181 61.3029 14.6813 61.0165C14.4445 60.7301 14.1037 60.5495 13.7338 60.5145C13.3638 60.4794 12.9951 60.5928 12.7088 60.8295C12.4224 61.0663 12.2418 61.4072 12.2068 61.7771C12.1836 62.437 12.3116 63.0934 12.581 63.6962C12.8504 64.299 13.254 64.8322 13.7611 65.255C14.6044 65.957 16.104 66.6225 18.5016 65.9251C20.7443 65.2687 22.4992 62.7708 22.6678 59.9994C22.8319 57.0275 21.15 54.4749 18.1643 53.1986C15.5844 52.1046 12.3435 52.8613 9.72256 55.1768C7.31127 57.3374 5.19627 61.18 6.47256 65.6242C7.70327 69.9272 10.4792 71.6091 12.5714 72.2701C16.61 73.5327 21.0952 71.9464 23.5476 69.9408C24.0685 69.5217 24.5646 69.0727 25.0335 68.5962C29.4368 64.2066 29.7057 59.3977 29.929 55.1085C30.1114 51.9177 30.2527 49.1464 32.0167 46.8353C33.7807 44.5243 35.8046 43.2161 37.8649 43.1204C40.4311 43.0065 42.619 44.6611 43.5307 45.4861C42.9101 46.7812 42.6713 48.2264 42.8424 49.6523C43.2618 54.2652 46.489 59.0741 51.4392 62.5247C54.8974 64.8622 58.6514 66.7292 62.6022 68.0765C66.1689 69.3089 69.4091 71.3351 72.0787 74.0022L72.89 74.8181C73.1096 75.0352 73.2542 75.3168 73.3025 75.6218C73.3509 75.9268 73.3006 76.2393 73.159 76.5138C73.0724 76.6903 72.9509 76.8474 72.8017 76.9755C72.6525 77.1036 72.4788 77.2 72.2912 77.2588C72.1036 77.3177 71.906 77.3377 71.7103 77.3178C71.5147 77.2978 71.3252 77.2383 71.1534 77.1428C65.1783 73.8138 58.8219 71.2211 52.2232 69.4212C50.7096 68.9789 49.2291 68.4305 47.7926 67.7803C46.2156 66.9727 44.7262 66.0042 43.3484 64.8904C38.0062 60.6284 35.7498 53.855 37.5549 47.6285L37.6142 47.4051C37.668 47.2292 37.6864 47.0443 37.6683 46.8611C37.6501 46.678 37.5958 46.5003 37.5085 46.3383C37.4211 46.1764 37.3025 46.0333 37.1594 45.9176C37.0164 45.8018 36.8518 45.7156 36.6752 45.6639C36.3173 45.5574 35.9319 45.5969 35.6031 45.7737C35.2743 45.9505 35.0288 46.2502 34.9203 46.6074L34.8656 46.8445C32.7323 54.1649 35.3852 62.1144 41.5798 67.092C41.8624 67.3016 42.1404 67.4976 42.423 67.721C34.9203 67.2652 28.0511 69.0565 23.3379 72.7122L23.3789 72.6438C23.2862 72.7326 23.1889 72.8163 23.0872 72.8945C22.9869 72.9811 22.8775 73.0495 22.7772 73.1225C22.4262 73.4142 22.0889 73.7241 21.7835 74.0341C18.023 76.8647 14.2534 76.5685 11.2678 75.4016C5.00482 72.2837 3.7969 67.2469 3.5462 65.4237ZM55.2316 59.3248C55.3281 60.3081 55.6227 61.2617 56.0976 62.1281C55.0299 61.5443 53.9923 60.9069 52.9889 60.2182C47.9385 56.6993 45.8508 52.328 45.5955 49.4107C45.5687 49.196 45.555 48.9799 45.5545 48.7635C45.5545 47.6832 45.8235 46.7852 46.3112 46.3112C46.7989 45.8371 47.6786 45.5682 48.7544 45.5682C48.9641 45.5682 49.1874 45.5682 49.4108 45.5955C52.328 45.8462 56.7039 47.9248 60.2228 52.9844C60.91 53.9893 61.5459 55.0284 62.1281 56.0976C61.2645 55.6153 60.3097 55.3188 59.3248 55.227C58.761 55.1074 58.1762 55.1305 57.6236 55.2943C57.0709 55.4581 56.568 55.7574 56.1604 56.165C55.7529 56.5725 55.4536 57.0755 55.2898 57.6281C55.126 58.1807 55.1028 58.7655 55.2225 59.3294L55.2316 59.3248ZM58.1625 58.1579C58.2035 58.1032 58.4816 57.9619 59.0741 58.0212C60.3185 58.1306 62.2147 59.0422 63.7691 61.2848C64.8004 62.8082 65.6207 64.4642 66.2077 66.2077C64.4669 65.6177 62.8128 64.7975 61.2894 63.769C59.0422 62.2101 58.1306 60.3185 58.0212 59.0695C58.0148 58.9907 58.0148 58.9114 58.0212 58.8325C57.989 58.5995 58.039 58.3626 58.1625 58.1625V58.1579ZM40.7046 81.897C43.3393 81.9518 45.869 82.9404 47.8427 84.6866C47.8427 84.6866 47.8838 84.6866 47.8838 84.7185C49.8757 86.3868 52.6653 87.3531 55.7922 87.5491C52.8309 88.5659 49.7972 89.3583 46.7169 89.9194C36.3014 91.7974 28.4203 88.9804 24.5093 85.6985C23.2313 84.7079 22.2389 83.3962 21.6331 81.897H40.7046ZM21.6331 79.0983C22.2389 77.5991 23.2313 76.2873 24.5093 75.2967C28.4203 72.0194 36.3014 69.1978 46.7169 71.0758C49.7954 71.6451 52.8285 72.4373 55.7922 73.4461C52.6653 73.6421 49.8666 74.613 47.8838 76.2813C47.8765 76.2813 47.8696 76.2842 47.8644 76.2893C47.8593 76.2944 47.8564 76.3014 47.8564 76.3086C45.8762 78.053 43.343 79.0411 40.7046 79.0983H21.6331ZM49.6797 82.5625C49.0399 82.096 48.5836 81.4203 48.3897 80.6526C48.3897 80.5979 48.4307 80.5569 48.4171 80.5022C48.4034 80.4475 48.3897 80.4019 48.3897 80.3472C48.5739 79.5752 49.0324 78.8965 49.6797 78.4373C51.503 76.8966 55.2316 75.5793 60.2091 76.4773C64.0412 77.2473 67.7314 78.605 71.1488 80.5022C67.7349 82.4061 64.0435 83.7627 60.2091 84.5225C55.2316 85.4205 51.5166 84.1123 49.6797 82.5625ZM78.8157 146.724C78.1407 149.205 76.8192 151.463 74.9861 153.266C73.153 155.07 70.874 156.354 68.382 156.989C65.782 157.698 63.0402 157.705 60.4367 157.009C57.8331 156.312 55.4612 154.937 53.5633 153.023L39.401 138.861C38.6618 138.152 38.0706 137.303 37.6614 136.364C37.2522 135.426 37.0332 134.415 37.017 133.391C37.0323 132.152 36.7998 130.923 36.3333 129.776C35.8667 128.628 35.1755 127.586 34.3003 126.709C33.4251 125.833 32.3835 125.14 31.2367 124.672C30.09 124.204 28.8612 123.969 27.6226 123.983C26.5989 123.972 25.5878 123.757 24.6485 123.35C23.7092 122.943 22.8607 122.352 22.1528 121.613L7.97677 107.437C6.06327 105.538 4.68765 103.165 3.99019 100.561C3.29273 97.9569 3.29839 95.2145 4.00658 92.6133C4.64171 90.1221 5.92659 87.8441 7.73001 86.0118C9.53344 84.1795 11.7908 82.8587 14.2716 82.1841C14.6363 82.0839 15.042 81.9881 15.4203 81.9015C16.7238 81.8906 17.9788 82.3952 18.9119 83.3055C19.1999 83.5911 19.4455 83.9165 19.6412 84.2718C20.4398 85.6449 21.4807 86.8618 22.7134 87.8637C27.4403 91.8019 34.5647 93.7209 42.3592 93.2606C42.063 93.4702 41.7986 93.6799 41.516 93.8896C35.3214 98.8671 32.6685 106.821 34.8017 114.137L34.8564 114.379C34.9649 114.736 35.2106 115.035 35.5396 115.211C35.8687 115.387 36.2541 115.426 36.6114 115.318C36.7897 115.269 36.9563 115.184 37.101 115.069C37.2457 114.954 37.3656 114.811 37.4534 114.648C37.5411 114.485 37.595 114.306 37.6117 114.122C37.6283 113.938 37.6075 113.752 37.5503 113.576L37.4911 113.353C35.6678 107.127 37.9469 100.353 43.2845 96.0912C44.6578 94.979 46.1426 94.0121 47.7151 93.2059C49.1504 92.5411 50.6365 91.9924 52.1594 91.5649C58.7594 89.7566 65.1159 87.1546 71.0895 83.816C71.2616 83.7211 71.451 83.6621 71.6465 83.6425C71.8419 83.6229 72.0393 83.6431 72.2268 83.7019C72.4142 83.7607 72.5878 83.8568 72.737 83.9846C72.8863 84.1123 73.0081 84.2689 73.0951 84.445C73.2368 84.7194 73.2871 85.0319 73.2387 85.3369C73.1903 85.6419 73.0458 85.9235 72.8262 86.1407L72.0148 86.9429C69.3483 89.6138 66.1071 91.6405 62.5384 92.8686C58.5852 94.2101 54.8305 96.0775 51.3753 98.4204C46.4115 101.871 43.1979 106.68 42.7786 111.279C42.6059 112.709 42.8446 114.159 43.4669 115.459C42.5552 116.27 40.3673 117.939 37.801 117.816C35.7407 117.729 33.7762 116.48 31.9529 114.114C30.1296 111.749 30.0339 109.036 29.8652 105.823C29.6145 101.101 29.3182 95.7584 23.4837 91.0042C21.0314 88.9986 16.5462 87.4124 12.5076 88.675C10.4017 89.336 7.63946 91.0179 6.40875 95.3209C5.32845 99.0403 6.57284 103.033 9.65874 105.755C12.2797 108.084 15.5069 108.84 18.0868 107.733C21.0861 106.457 22.7681 103.918 22.604 100.946C22.4354 98.1834 20.6805 95.6855 18.4378 95.02C16.0402 94.3044 14.5406 94.9927 13.6973 95.6764C13.1921 96.1046 12.789 96.6404 12.5177 97.2445C12.2464 97.8487 12.1137 98.5059 12.1293 99.168C12.1662 99.5263 12.3429 99.8555 12.6212 100.084C12.8994 100.313 13.2566 100.423 13.6153 100.39C13.9807 100.357 14.3202 100.187 14.5648 99.9137C14.8095 99.6403 14.9409 99.2841 14.9326 98.9173C14.9476 98.7037 15.0078 98.4958 15.1092 98.3072C15.2105 98.1186 15.3508 97.9537 15.5206 97.8233C16.0949 97.3675 16.9929 97.5134 17.6401 97.7094C18.7478 98.033 19.7004 99.5326 19.7962 101.105C19.8554 102.144 19.5728 104.05 16.9929 105.157C15.4385 105.814 13.2916 105.226 11.523 103.644C9.75446 102.062 8.18644 99.2683 9.11176 96.0866C9.82739 93.6024 11.2587 91.9843 13.36 91.3461C16.2636 90.4345 19.7688 91.5695 21.7334 93.1694C26.597 97.135 26.834 101.429 27.0756 105.969C27.2579 109.337 27.4539 112.806 29.7376 115.801C32.0942 118.868 34.7744 120.482 37.719 120.61C38.7344 120.643 39.7482 120.506 40.7183 120.204C40.4105 121.177 40.2778 122.197 40.3263 123.217C40.4357 126.148 42.063 128.842 45.1352 131.18C48.1208 133.482 51.5987 133.664 54.9626 133.847C59.5208 134.097 63.7964 134.334 67.7666 139.203C69.3483 141.167 70.5015 144.672 69.5899 147.571C68.929 149.677 67.3108 151.109 64.8494 151.82C61.6586 152.731 58.8462 151.177 57.2782 149.408C55.7102 147.64 55.1176 145.47 55.7786 143.939C56.8862 141.359 58.7915 141.076 59.8308 141.131C61.3851 141.217 62.8985 142.184 63.2221 143.291C63.4181 143.939 63.5594 144.832 63.1127 145.411C62.9801 145.575 62.8165 145.712 62.6311 145.812C62.4458 145.913 62.2423 145.977 62.0324 145.999C61.6625 145.963 61.2935 146.076 61.0067 146.312C60.7199 146.549 60.5388 146.889 60.5031 147.259C60.4675 147.629 60.5802 147.998 60.8166 148.285C61.0529 148.572 61.3935 148.753 61.7635 148.788C62.4255 148.81 63.0839 148.681 63.6887 148.411C64.2936 148.141 64.8292 147.737 65.255 147.23C65.9433 146.391 66.6225 144.891 65.916 142.494C65.255 140.215 62.7617 138.496 59.9903 138.327C57.0001 138.159 54.4658 139.841 53.1895 142.831C52.0955 145.411 52.8522 148.647 55.1814 151.268C57.9164 154.354 61.8957 155.589 65.6106 154.523C67.3037 154.074 68.854 153.2 70.1141 151.984C71.1007 150.984 71.835 149.764 72.2564 148.424C73.5191 144.385 71.9374 139.9 69.9318 137.443C65.1776 131.613 59.8217 131.317 55.0948 131.062C51.9041 130.879 49.1373 130.738 46.8217 128.969C44.5061 127.201 43.2025 125.186 43.1068 123.121C42.9928 120.56 44.6611 118.372 45.477 117.46C46.7776 118.074 48.224 118.31 49.6523 118.144C54.2516 117.724 59.065 114.497 62.511 109.552C64.8543 106.096 66.7232 102.341 68.0675 98.3885C69.2972 94.8206 71.3237 91.5798 73.9931 88.912L74.7908 88.0961C75.0084 87.8773 75.2903 87.7336 75.5953 87.686C75.9003 87.6385 76.2125 87.6895 76.4864 87.8317C76.6625 87.9189 76.8191 88.0407 76.9469 88.1898C77.0748 88.3389 77.1711 88.5123 77.2303 88.6996C77.2895 88.8869 77.3102 89.0843 77.2913 89.2798C77.2723 89.4753 77.2141 89.6649 77.12 89.8374C73.7963 95.8026 71.2067 102.148 69.4076 108.736C68.9688 110.263 68.4157 111.754 67.7529 113.198C66.9448 114.775 65.9764 116.264 64.863 117.642C60.6011 122.985 53.8277 125.241 47.6057 123.431L47.3778 123.377C47.2022 123.32 47.017 123.3 46.8334 123.317C46.6497 123.334 46.4714 123.388 46.3092 123.476C46.1469 123.563 46.0041 123.683 45.8893 123.827C45.7745 123.972 45.6901 124.138 45.6411 124.316C45.5345 124.673 45.5734 125.058 45.7492 125.386C45.9251 125.715 46.2238 125.961 46.5801 126.07L46.8172 126.125C54.1376 128.254 62.0871 125.605 67.0646 119.406C67.2743 119.128 67.4886 118.859 67.6982 118.568C67.2424 126.362 69.1569 133.487 73.0951 138.213C74.097 139.445 75.314 140.484 76.687 141.281C77.4188 141.713 78.0232 142.331 78.4388 143.073C78.8543 143.814 79.0661 144.652 79.0527 145.502C79.0117 145.953 78.9114 146.359 78.8157 146.724ZM56.1706 104.829C56.5936 105.21 57.0962 105.492 57.6418 105.654C58.1874 105.817 58.7623 105.856 59.3248 105.768C60.3124 105.668 61.27 105.372 62.1418 104.898C61.556 105.968 60.9155 107.007 60.2228 108.011C56.7039 113.057 52.328 115.149 49.4108 115.4C48.0433 115.527 46.8718 115.258 46.3112 114.684C45.8235 114.228 45.5545 113.317 45.5545 112.232C45.5551 112.015 45.5688 111.799 45.5955 111.584C45.8508 108.672 47.9385 104.291 52.9889 100.777C54.01 100.061 55.0492 99.446 56.0976 98.8535C55.6244 99.7271 55.33 100.686 55.2316 101.675C55.1473 102.237 55.1877 102.812 55.35 103.357C55.5122 103.902 55.7924 104.404 56.1706 104.829ZM59.0741 102.979C58.7631 103.041 58.4401 102.991 58.1625 102.837C58.1169 102.81 58.0075 102.6 58.0075 102.163C58.0011 102.084 58.0011 102.005 58.0075 101.926C58.1169 100.677 59.0285 98.7851 61.2757 97.2307C62.798 96.1992 64.4523 95.3774 66.194 94.7876C65.607 96.531 64.7867 98.187 63.7554 99.7104C62.2147 101.953 60.3185 102.865 59.0741 102.979ZM79.0937 139.362C77.5952 138.76 76.2845 137.768 75.2967 136.49C72.7487 133.446 70.4696 127.994 70.4696 120.815C70.487 118.622 70.6945 116.435 71.0895 114.278C71.6588 111.201 72.451 108.17 73.4598 105.208C73.6558 108.335 74.6221 111.133 76.2904 113.116C76.2904 113.116 76.2904 113.143 76.3178 113.143C78.0649 115.122 79.0534 117.656 79.1074 120.295L79.0937 139.362ZM80.4977 112.583C80.4429 112.583 80.3974 112.61 80.3427 112.61C79.5763 112.416 78.9022 111.96 78.4373 111.32C77.2431 109.889 76.181 107.336 76.181 103.945C76.1866 102.887 76.2842 101.832 76.4728 100.791C77.2427 96.9499 78.6003 93.2507 80.4977 89.8237C82.395 93.2507 83.7526 96.9499 84.5225 100.791C85.4342 105.768 84.1032 109.483 82.558 111.32C82.0999 111.967 81.4229 112.425 80.6526 112.61C80.5979 112.61 80.5523 112.569 80.4977 112.583ZM87.5765 105.249C88.5714 108.199 89.3543 111.217 89.9194 114.278C91.7974 124.698 88.9805 132.58 85.6985 136.49C84.7108 137.768 83.4001 138.76 81.9016 139.362V120.295C81.9556 117.656 82.9441 115.122 84.6912 113.143C84.6984 113.143 84.7054 113.141 84.7105 113.135C84.7157 113.13 84.7185 113.123 84.7185 113.116C86.3732 111.124 87.3349 108.362 87.5765 105.249ZM153.019 107.437L138.843 121.599C138.135 122.34 137.287 122.933 136.348 123.342C135.409 123.752 134.397 123.969 133.373 123.983C132.132 123.964 130.9 124.195 129.751 124.661C128.601 125.128 127.556 125.82 126.679 126.697C125.802 127.575 125.109 128.619 124.643 129.769C124.177 130.919 123.946 132.15 123.965 133.391C123.951 134.415 123.733 135.427 123.323 136.366C122.914 137.305 122.322 138.153 121.581 138.861L121.385 139.07L107.405 153.037C105.507 154.95 103.135 156.326 100.531 157.022C97.9278 157.719 95.186 157.712 92.586 157.002C90.0939 156.368 87.815 155.083 85.9818 153.28C84.1488 151.476 82.8272 149.219 82.1523 146.737C82.0566 146.373 81.9563 145.967 81.8742 145.589C81.8631 144.286 82.3659 143.031 83.2736 142.097C83.5622 141.812 83.8871 141.567 84.2399 141.368C85.6129 140.571 86.8299 139.531 87.8318 138.3C91.3917 134.034 93.3016 127.816 93.3016 120.911C93.3016 120.168 93.2743 119.411 93.2287 118.654C93.4566 118.932 93.6526 119.215 93.8623 119.493C98.8398 125.692 106.789 128.34 114.11 126.212L114.347 126.157C114.638 126.065 114.894 125.884 115.075 125.638C115.257 125.392 115.356 125.095 115.359 124.79C115.354 124.652 115.33 124.515 115.286 124.384C115.237 124.206 115.152 124.04 115.038 123.896C114.923 123.751 114.78 123.632 114.618 123.544C114.456 123.456 114.277 123.402 114.094 123.385C113.91 123.368 113.725 123.389 113.549 123.445L113.321 123.5C107.099 125.323 100.326 123.044 96.0639 117.711C94.9656 116.337 94.011 114.853 93.215 113.285C92.5425 111.835 91.9892 110.334 91.5604 108.795C89.7571 102.207 87.1629 95.8612 83.8343 89.8966C83.7402 89.7242 83.682 89.5345 83.663 89.339C83.6441 89.1435 83.6648 88.9462 83.724 88.7589C83.7831 88.5716 83.8795 88.3982 84.0074 88.2491C84.1352 88.0999 84.2918 87.9781 84.4678 87.891C84.7418 87.7488 85.054 87.6977 85.359 87.7453C85.664 87.7928 85.9458 87.9365 86.1635 88.1554L86.9748 88.9713C89.6451 91.6383 91.6717 94.8794 92.9005 98.4478C94.2505 102.398 96.119 106.152 98.4569 109.611C101.903 114.575 106.716 117.784 111.329 118.203C112.753 118.369 114.195 118.132 115.491 117.519C116.307 118.431 117.975 120.619 117.848 123.181C117.765 125.245 116.517 127.205 114.146 129.029C111.776 130.852 109.068 130.952 105.859 131.121C101.133 131.372 95.7904 131.682 91.0362 137.502C89.0306 139.959 87.4489 144.445 88.7115 148.483C89.3679 150.584 91.0499 153.347 95.3574 154.582C97.1093 155.064 98.9588 155.064 100.711 154.583C102.463 154.102 104.053 153.157 105.312 151.847C105.481 151.678 105.636 151.51 105.768 151.327C108.098 148.706 108.854 145.484 107.747 142.904C106.47 139.9 103.936 138.218 100.959 138.387C98.1971 138.555 95.7038 140.306 95.0337 142.553C94.3181 144.95 95.0064 146.45 95.6947 147.289C96.1251 147.802 96.6682 148.209 97.2818 148.478C97.8953 148.747 98.5627 148.87 99.2318 148.839C99.5893 148.801 99.9174 148.623 100.145 148.345C100.373 148.067 100.482 147.711 100.449 147.353C100.419 146.988 100.249 146.648 99.9743 146.405C99.7001 146.162 99.3427 146.035 98.9766 146.049C98.7636 146.026 98.5573 145.96 98.3696 145.857C98.1819 145.754 98.0164 145.615 97.8826 145.447C97.4268 144.868 97.5772 143.975 97.7732 143.328C98.0832 142.22 99.5965 141.267 101.165 141.167C102.204 141.112 104.109 141.395 105.217 143.975C105.878 145.529 105.29 147.676 103.703 149.445C102.117 151.213 99.3275 152.781 96.1459 151.856C93.6663 151.145 92.0663 149.714 91.4054 147.608C90.4938 144.709 91.6288 141.204 93.2287 139.239C97.1989 134.357 101.488 134.134 106.033 133.897C109.397 133.715 112.87 133.519 115.86 131.23C118.932 128.878 120.56 126.216 120.669 123.253C120.705 122.238 120.568 121.224 120.263 120.254C121.238 120.557 122.257 120.69 123.276 120.646C126.207 120.532 128.901 118.905 131.244 115.837C133.523 112.852 133.724 109.374 133.906 106.005C134.161 101.447 134.398 97.1715 139.262 93.2059C141.226 91.6196 144.732 90.4709 147.635 91.3826C149.737 92.039 151.168 93.6389 151.884 96.1231C152.795 99.3138 151.236 102.108 149.472 103.694C147.708 105.281 145.529 105.85 144.002 105.194C141.422 104.086 141.14 102.181 141.199 101.142C141.281 99.5828 142.248 98.0695 143.355 97.7458C144.002 97.5498 144.9 97.4131 145.475 97.8598C145.641 97.9907 145.778 98.154 145.879 98.3397C145.98 98.5254 146.043 98.7296 146.063 98.9401C146.029 99.3111 146.143 99.6803 146.379 99.9684C146.615 100.256 146.955 100.44 147.325 100.481C147.509 100.498 147.695 100.478 147.872 100.423C148.048 100.368 148.212 100.278 148.354 100.16C148.496 100.041 148.613 99.8959 148.699 99.7319C148.784 99.5679 148.836 99.3887 148.852 99.2044C148.874 98.5428 148.745 97.8849 148.476 97.2802C148.207 96.6755 147.804 96.1396 147.298 95.7129C146.455 95.0291 144.955 94.3454 142.557 95.0565C140.315 95.7129 138.56 98.2108 138.391 100.982C138.227 103.968 139.909 106.507 142.895 107.783C145.475 108.877 148.716 108.12 151.337 105.791C151.519 105.636 151.688 105.481 151.856 105.335C153.165 104.074 154.11 102.484 154.591 100.731C155.073 98.9783 155.073 97.1282 154.591 95.3756C153.36 91.0726 150.584 89.3907 148.492 88.7297C144.454 87.4671 139.968 89.0533 137.516 91.0589C131.695 95.8268 131.385 101.169 131.135 105.896C130.952 109.087 130.811 111.853 129.047 114.169C127.283 116.485 125.259 117.784 123.199 117.884C120.619 117.993 118.431 116.311 117.519 115.5C118.028 114.492 118.283 113.375 118.262 112.245C118.262 111.949 118.262 111.644 118.221 111.334C117.802 106.721 114.575 101.912 109.625 98.4615C106.169 96.1185 102.415 94.2512 98.4615 92.9096C94.8927 91.6816 91.6515 89.6548 88.985 86.9839L88.1736 86.1817C87.954 85.9646 87.8095 85.683 87.7611 85.378C87.7128 85.0729 87.7631 84.7605 87.9047 84.486C87.9918 84.3099 88.1136 84.1533 88.2628 84.0256C88.4121 83.8979 88.5857 83.8017 88.7731 83.7429C88.9605 83.6841 89.1579 83.6639 89.3534 83.6835C89.5488 83.7031 89.7383 83.7622 89.9103 83.857C95.8802 87.1935 102.232 89.7954 108.827 91.6059C110.366 92.0199 111.868 92.5628 113.317 93.2287C114.885 94.0285 116.366 94.991 117.734 96.1003C123.076 100.362 125.332 107.136 123.527 113.362L123.468 113.586C123.411 113.761 123.39 113.947 123.406 114.131C123.423 114.315 123.477 114.494 123.565 114.657C123.652 114.82 123.772 114.963 123.917 115.078C124.062 115.193 124.228 115.278 124.407 115.327C124.583 115.386 124.77 115.409 124.956 115.393C125.142 115.377 125.323 115.324 125.487 115.236C125.651 115.148 125.796 115.028 125.912 114.882C126.028 114.736 126.113 114.568 126.162 114.388L126.216 114.146C128.35 106.83 125.697 98.8763 119.502 93.8987C119.22 93.689 118.941 93.493 118.659 93.2697C119.416 93.3107 120.172 93.3517 120.915 93.338C127.83 93.338 134.043 91.4327 138.305 87.8682C139.537 86.8664 140.578 85.6494 141.377 84.2764C141.573 83.921 141.818 83.5956 142.106 83.31C143.039 82.3998 144.294 81.8952 145.598 81.9061C145.976 81.9927 146.382 82.0884 146.746 82.1887C149.227 82.8633 151.485 84.1841 153.288 86.0164C155.092 87.8486 156.376 90.1266 157.012 92.6179C157.716 95.2203 157.718 97.9631 157.016 100.566C156.315 103.17 154.935 105.54 153.019 107.437ZM105.764 101.675C105.665 100.686 105.371 99.7271 104.898 98.8535C105.946 99.446 106.985 100.061 108.006 100.777C113.071 104.296 115.144 108.672 115.4 111.584C115.523 112.952 115.258 114.123 114.684 114.684C114.228 115.163 113.317 115.427 112.241 115.427C112.031 115.427 111.808 115.427 111.585 115.4C108.667 115.149 104.291 113.057 100.773 108.011C100.084 107.007 99.4483 105.967 98.8672 104.898C99.7333 105.374 100.687 105.67 101.67 105.768C102.233 105.856 102.808 105.817 103.353 105.654C103.899 105.492 104.402 105.21 104.825 104.829C105.154 104.47 105.408 104.05 105.574 103.592C105.74 103.135 105.814 102.649 105.791 102.163C105.795 102 105.786 101.837 105.764 101.675ZM102.833 102.837C102.555 102.991 102.232 103.041 101.921 102.979C100.677 102.865 98.7806 101.953 97.2262 99.7104C96.1949 98.187 95.3746 96.531 94.7876 94.7876C96.5293 95.3774 98.1836 96.1992 99.7059 97.2307C101.953 98.7851 102.865 100.663 102.974 101.926C103.029 102.514 102.892 102.801 102.833 102.837Z" fill="url(#paint0_linear_401_2)"/>
<path d="M23.5656 48.3715C23.9164 48.02 24.1551 47.5725 24.2516 47.0854C24.3481 46.5984 24.2981 46.0936 24.1078 45.635C23.9176 45.1763 23.5957 44.7844 23.1828 44.5086C22.7699 44.2329 22.2845 44.0857 21.7879 44.0857C21.2914 44.0857 20.806 44.2329 20.3931 44.5086C19.9802 44.7844 19.6583 45.1763 19.468 45.635C19.2778 46.0936 19.2278 46.5984 19.3243 47.0854C19.4208 47.5725 19.6595 48.02 20.0102 48.3715C20.2435 48.6052 20.5206 48.7906 20.8257 48.9172C21.1307 49.0437 21.4577 49.1088 21.7879 49.1088C22.1182 49.1088 22.4452 49.0437 22.7502 48.9172C23.0553 48.7906 23.3323 48.6052 23.5656 48.3715Z" fill="url(#paint1_linear_401_2)"/>
<path d="M46.5941 24.2997C47.9812 24.2997 49.1057 23.1753 49.1057 21.7882C49.1057 20.4011 47.9812 19.2766 46.5941 19.2766C45.207 19.2766 44.0825 20.4011 44.0825 21.7882C44.0825 23.1753 45.207 24.2997 46.5941 24.2997Z" fill="url(#paint2_linear_401_2)"/>
<path d="M114.402 24.2997C115.789 24.2997 116.913 23.1753 116.913 21.7882C116.913 20.4011 115.789 19.2766 114.402 19.2766C113.015 19.2766 111.89 20.4011 111.89 21.7882C111.89 23.1753 113.015 24.2997 114.402 24.2997Z" fill="url(#paint3_linear_401_2)"/>
<path d="M140.985 48.3715C141.336 48.02 141.575 47.5725 141.671 47.0854C141.768 46.5984 141.718 46.0936 141.527 45.635C141.337 45.1763 141.015 44.7844 140.602 44.5086C140.189 44.2329 139.704 44.0857 139.207 44.0857C138.711 44.0857 138.225 44.2329 137.813 44.5086C137.4 44.7844 137.078 45.1763 136.887 45.635C136.697 46.0936 136.647 46.5984 136.744 47.0854C136.84 47.5725 137.079 48.02 137.43 48.3715C137.663 48.6052 137.94 48.7906 138.245 48.9172C138.55 49.0437 138.877 49.1088 139.207 49.1088C139.538 49.1088 139.865 49.0437 140.17 48.9172C140.475 48.7906 140.752 48.6052 140.985 48.3715Z" fill="url(#paint4_linear_401_2)"/>
<path d="M137.43 112.628C137.079 112.98 136.84 113.427 136.744 113.915C136.647 114.402 136.697 114.906 136.887 115.365C137.078 115.824 137.4 116.216 137.813 116.491C138.225 116.767 138.711 116.914 139.207 116.914C139.704 116.914 140.189 116.767 140.602 116.491C141.015 116.216 141.337 115.824 141.527 115.365C141.718 114.906 141.768 114.402 141.671 113.915C141.575 113.427 141.336 112.98 140.985 112.628C140.752 112.395 140.475 112.209 140.17 112.083C139.865 111.956 139.538 111.891 139.207 111.891C138.877 111.891 138.55 111.956 138.245 112.083C137.94 112.209 137.663 112.395 137.43 112.628Z" fill="url(#paint5_linear_401_2)"/>
<path d="M112.624 137.443C112.273 137.795 112.035 138.242 111.938 138.729C111.842 139.216 111.892 139.721 112.082 140.18C112.272 140.638 112.594 141.03 113.007 141.306C113.42 141.582 113.905 141.729 114.402 141.729C114.898 141.729 115.384 141.582 115.797 141.306C116.209 141.03 116.531 140.638 116.722 140.18C116.912 139.721 116.962 139.216 116.865 138.729C116.769 138.242 116.53 137.795 116.179 137.443C115.946 137.209 115.669 137.024 115.364 136.897C115.059 136.771 114.732 136.706 114.402 136.706C114.071 136.706 113.744 136.771 113.439 136.897C113.134 137.024 112.857 137.209 112.624 137.443Z" fill="url(#paint6_linear_401_2)"/>
<path d="M44.8164 137.443C44.4656 137.795 44.2269 138.242 44.1304 138.729C44.0339 139.216 44.0839 139.721 44.2742 140.18C44.4644 140.638 44.7863 141.03 45.1993 141.306C45.6122 141.582 46.0976 141.729 46.5941 141.729C47.0906 141.729 47.576 141.582 47.9889 141.306C48.4018 141.03 48.7238 140.638 48.914 140.18C49.1042 139.721 49.1543 139.216 49.0578 138.729C48.9612 138.242 48.7225 137.795 48.3718 137.443C48.1385 137.209 47.8614 137.024 47.5564 136.897C47.2513 136.771 46.9243 136.706 46.5941 136.706C46.2638 136.706 45.9369 136.771 45.6318 136.897C45.3268 137.024 45.0497 137.209 44.8164 137.443Z" fill="url(#paint7_linear_401_2)"/>
<path d="M20.0102 112.628C19.6595 112.98 19.4208 113.427 19.3243 113.915C19.2278 114.402 19.2778 114.906 19.468 115.365C19.6583 115.824 19.9802 116.216 20.3931 116.491C20.806 116.767 21.2914 116.914 21.7879 116.914C22.2845 116.914 22.7699 116.767 23.1828 116.491C23.5957 116.216 23.9176 115.824 24.1078 115.365C24.2981 114.906 24.3481 114.402 24.2516 113.915C24.1551 113.427 23.9164 112.98 23.5656 112.628C23.3323 112.395 23.0553 112.209 22.7502 112.083C22.4452 111.956 22.1182 111.891 21.7879 111.891C21.4577 111.891 21.1307 111.956 20.8257 112.083C20.5206 112.209 20.2435 112.395 20.0102 112.628Z" fill="url(#paint8_linear_401_2)"/>
<path d="M160.384 74.4398C159.728 75.8802 158.064 78.9251 155.311 80.3245C155.277 80.3394 155.248 80.3639 155.228 80.3951C155.207 80.4263 155.196 80.4627 155.196 80.5C155.196 80.5372 155.207 80.5737 155.228 80.6049C155.248 80.636 155.277 80.6606 155.311 80.6755C158.046 82.0748 159.728 85.1197 160.384 86.5601C160.405 86.6011 160.438 86.6342 160.479 86.6544C160.521 86.6747 160.567 86.6809 160.612 86.6721C160.657 86.6633 160.698 86.64 160.729 86.6058C160.759 86.5715 160.777 86.5283 160.781 86.4826C160.922 84.4907 160.995 82.4851 160.995 80.5022C160.995 78.5194 160.922 76.5093 160.781 74.5173C160.777 74.4716 160.759 74.4284 160.729 74.3942C160.698 74.3599 160.657 74.3367 160.612 74.3279C160.567 74.3191 160.521 74.3253 160.479 74.3455C160.438 74.3657 160.405 74.3989 160.384 74.4398Z" fill="url(#paint9_linear_401_2)"/>
<path d="M86.5558 160.389C85.1199 159.728 82.0751 158.069 80.6711 155.311C80.6557 155.278 80.6312 155.251 80.6005 155.231C80.5698 155.212 80.5343 155.201 80.4979 155.201C80.4616 155.201 80.426 155.212 80.3954 155.231C80.3647 155.251 80.3402 155.278 80.3247 155.311C78.9208 158.069 75.8759 159.728 74.4401 160.389C74.3991 160.41 74.366 160.443 74.3457 160.484C74.3255 160.525 74.3193 160.572 74.3281 160.617C74.3369 160.662 74.3602 160.703 74.3944 160.733C74.4286 160.764 74.4719 160.782 74.5176 160.786C76.505 160.922 78.5151 161 80.4979 161C82.4807 161 84.4909 160.922 86.4783 160.786C86.524 160.782 86.5672 160.764 86.6015 160.733C86.6357 160.703 86.659 160.662 86.6678 160.617C86.6765 160.572 86.6704 160.525 86.6501 160.484C86.6299 160.443 86.5968 160.41 86.5558 160.389Z" fill="url(#paint10_linear_401_2)"/>
<path d="M0.610796 86.5601C1.26718 85.1197 2.93092 82.0748 5.68407 80.6755C5.71823 80.6606 5.74729 80.636 5.76771 80.6049C5.78813 80.5737 5.799 80.5372 5.799 80.5C5.799 80.4627 5.78813 80.4263 5.76771 80.3951C5.74729 80.3639 5.71823 80.3394 5.68407 80.3245C2.94915 78.9251 1.26718 75.8802 0.610796 74.4398C0.590292 74.3989 0.556923 74.3657 0.515795 74.3455C0.474666 74.3253 0.428045 74.3191 0.383064 74.3279C0.338083 74.3367 0.297221 74.3599 0.26673 74.3942C0.23624 74.4284 0.217803 74.4716 0.214236 74.5173C0.0729317 76.5093 0 78.5149 0 80.5022C0 82.4896 0.0729317 84.4907 0.214236 86.4826C0.217803 86.5283 0.23624 86.5715 0.26673 86.6058C0.297221 86.64 0.338083 86.6633 0.383064 86.6721C0.428045 86.6809 0.474666 86.6747 0.515795 86.6544C0.556923 86.6342 0.590292 86.6011 0.610796 86.5601Z" fill="url(#paint11_linear_401_2)"/>
<path d="M74.4397 0.610797C75.8755 1.27173 78.9204 2.93092 80.3243 5.68863C80.3398 5.72149 80.3643 5.74928 80.3949 5.76874C80.4256 5.7882 80.4612 5.79853 80.4975 5.79853C80.5338 5.79853 80.5694 5.7882 80.6001 5.76874C80.6308 5.74928 80.6553 5.72149 80.6707 5.68863C82.0747 2.95371 85.1195 1.27173 86.5554 0.610797C86.5976 0.591758 86.6321 0.558983 86.6534 0.517805C86.6746 0.476627 86.6813 0.429471 86.6723 0.38402C86.6633 0.33857 86.6392 0.297501 86.6039 0.267499C86.5686 0.237497 86.5242 0.220328 86.4779 0.218791C84.4905 0.0774874 82.4803 0 80.4975 0C78.5147 0 76.5045 0.0774874 74.5172 0.218791C74.4709 0.220328 74.4264 0.237497 74.3911 0.267499C74.3558 0.297501 74.3317 0.33857 74.3227 0.38402C74.3138 0.429471 74.3204 0.476627 74.3417 0.517805C74.3629 0.558983 74.3974 0.591758 74.4397 0.610797Z" fill="url(#paint12_linear_401_2)"/>
<path d="M27.9418 31.3833C29.855 31.3833 31.406 29.8323 31.406 27.9191C31.406 26.0058 29.855 24.4548 27.9418 24.4548C26.0285 24.4548 24.4775 26.0058 24.4775 27.9191C24.4775 29.8323 26.0285 31.3833 27.9418 31.3833Z" fill="url(#paint13_linear_401_2)"/>
<path d="M133.058 31.3833C134.972 31.3833 136.523 29.8323 136.523 27.9191C136.523 26.0058 134.972 24.4548 133.058 24.4548C131.145 24.4548 129.594 26.0058 129.594 27.9191C129.594 29.8323 131.145 31.3833 133.058 31.3833Z" fill="url(#paint14_linear_401_2)"/>
<path d="M27.9418 136.545C29.855 136.545 31.406 134.994 31.406 133.081C31.406 131.168 29.855 129.617 27.9418 129.617C26.0285 129.617 24.4775 131.168 24.4775 133.081C24.4775 134.994 26.0285 136.545 27.9418 136.545Z" fill="url(#paint15_linear_401_2)"/>
<path d="M133.058 136.545C134.972 136.545 136.523 134.994 136.523 133.081C136.523 131.168 134.972 129.617 133.058 129.617C131.145 129.617 129.594 131.168 129.594 133.081C129.594 134.994 131.145 136.545 133.058 136.545Z" fill="url(#paint16_linear_401_2)"/>
</g>
<defs>
<linearGradient id="paint0_linear_401_2" x1="80.4977" y1="160.093" x2="80.4977" y2="0.209571" gradientUnits="userSpaceOnUse">
<stop stop-color="#827466"/>
<stop offset="1" stop-color="#E6AD74"/>
</linearGradient>
<linearGradient id="paint1_linear_401_2" x1="21.7879" y1="160.093" x2="21.7879" y2="0.209549" gradientUnits="userSpaceOnUse">
<stop stop-color="#827466"/>
<stop offset="1" stop-color="#E6AD74"/>
</linearGradient>
<linearGradient id="paint2_linear_401_2" x1="46.5941" y1="160.088" x2="46.5941" y2="0.209685" gradientUnits="userSpaceOnUse">
<stop stop-color="#827466"/>
<stop offset="1" stop-color="#E6AD74"/>
</linearGradient>
<linearGradient id="paint3_linear_401_2" x1="114.402" y1="160.088" x2="114.402" y2="0.209685" gradientUnits="userSpaceOnUse">
<stop stop-color="#827466"/>
<stop offset="1" stop-color="#E6AD74"/>
</linearGradient>
<linearGradient id="paint4_linear_401_2" x1="139.207" y1="160.093" x2="139.207" y2="0.209549" gradientUnits="userSpaceOnUse">
<stop stop-color="#827466"/>
<stop offset="1" stop-color="#E6AD74"/>
</linearGradient>
<linearGradient id="paint5_linear_401_2" x1="139.207" y1="160.093" x2="139.207" y2="0.209848" gradientUnits="userSpaceOnUse">
<stop stop-color="#827466"/>
<stop offset="1" stop-color="#E6AD74"/>
</linearGradient>
<linearGradient id="paint6_linear_401_2" x1="114.402" y1="160.093" x2="114.402" y2="0.209759" gradientUnits="userSpaceOnUse">
<stop stop-color="#827466"/>
<stop offset="1" stop-color="#E6AD74"/>
</linearGradient>
<linearGradient id="paint7_linear_401_2" x1="46.5941" y1="160.093" x2="46.5941" y2="0.209759" gradientUnits="userSpaceOnUse">
<stop stop-color="#827466"/>
<stop offset="1" stop-color="#E6AD74"/>
</linearGradient>
<linearGradient id="paint8_linear_401_2" x1="21.7879" y1="160.093" x2="21.7879" y2="0.209848" gradientUnits="userSpaceOnUse">
<stop stop-color="#827466"/>
<stop offset="1" stop-color="#E6AD74"/>
</linearGradient>
<linearGradient id="paint9_linear_401_2" x1="158.096" y1="-0.597181" x2="158.096" y2="161.205" gradientUnits="userSpaceOnUse">
<stop stop-color="#827466"/>
<stop offset="1" stop-color="#E6AD74"/>
</linearGradient>
<linearGradient id="paint10_linear_401_2" x1="80.4979" y1="161.205" x2="80.4979" y2="-0.897848" gradientUnits="userSpaceOnUse">
<stop stop-color="#827466"/>
<stop offset="1" stop-color="#E6AD74"/>
</linearGradient>
<linearGradient id="paint11_linear_401_2" x1="2.89901" y1="-0.879783" x2="2.89901" y2="160.467" gradientUnits="userSpaceOnUse">
<stop stop-color="#827466"/>
<stop offset="1" stop-color="#E6AD74"/>
</linearGradient>
<linearGradient id="paint12_linear_401_2" x1="80.4975" y1="159.815" x2="80.4975" y2="0.223351" gradientUnits="userSpaceOnUse">
<stop stop-color="#827466"/>
<stop offset="1" stop-color="#E6AD74"/>
</linearGradient>
<linearGradient id="paint13_linear_401_2" x1="27.9418" y1="160.093" x2="27.9418" y2="-0.0454547" gradientUnits="userSpaceOnUse">
<stop stop-color="#827466"/>
<stop offset="1" stop-color="#E6AD74"/>
</linearGradient>
<linearGradient id="paint14_linear_401_2" x1="133.058" y1="160.093" x2="133.058" y2="-0.0454547" gradientUnits="userSpaceOnUse">
<stop stop-color="#827466"/>
<stop offset="1" stop-color="#E6AD74"/>
</linearGradient>
<linearGradient id="paint15_linear_401_2" x1="27.9418" y1="159.81" x2="27.9418" y2="-0.620142" gradientUnits="userSpaceOnUse">
<stop stop-color="#827466"/>
<stop offset="1" stop-color="#E6AD74"/>
</linearGradient>
<linearGradient id="paint16_linear_401_2" x1="133.058" y1="160.371" x2="133.058" y2="0.136524" gradientUnits="userSpaceOnUse">
<stop stop-color="#827466"/>
<stop offset="1" stop-color="#E6AD74"/>
</linearGradient>
<clipPath id="clip0_401_2">
<rect width="161" height="161" fill="white"/>
</clipPath>
</defs>
</svg>
